<?xml version="1.0" encoding="UTF-8" standalone="no"?>
<!DOCTYPE svg PUBLIC "-//W3C//DTD SVG 1.1//EN" "http://www.w3.org/Graphics/SVG/1.1/DTD/svg11.dtd">
<svg width="100%" height="100%" viewBox="0 0 200 200" version="1.1" xmlns="http://www.w3.org/2000/svg" xmlns:xlink="http://www.w3.org/1999/xlink" xml:space="preserve" xmlns:serif="http://www.serif.com/" style="fill-rule:evenodd;clip-rule:evenodd;stroke-linejoin:round;stroke-miterlimit:2;">
    <path d="M161.547,183.986L135.772,183.986C123.38,183.984 113.183,173.786 113.183,161.394C113.183,161.393 113.183,161.392 113.183,161.391L113.183,135.609C113.183,135.606 113.183,135.604 113.183,135.601C113.183,123.209 123.38,113.011 135.772,113.009L161.547,113.009C173.939,113.011 184.136,123.209 184.136,135.601C184.136,135.604 184.136,135.606 184.136,135.609L184.136,161.391C184.136,161.392 184.136,161.393 184.136,161.394C184.136,173.786 173.939,183.984 161.547,183.986Z" style="fill:rgb(1,186,75);fill-rule:nonzero;"/>
    <path d="M158.808,59.1L138.921,59.1L138.921,45.187C138.901,29.181 125.735,16.017 109.729,16L42.193,16C26.187,16.016 13.02,29.181 13,45.187L13,112.712C13.019,128.719 26.186,141.884 42.193,141.9L62.079,141.9L62.079,155.815C62.1,171.82 75.266,184.983 91.271,185L158.808,185C174.814,184.983 187.98,171.819 188,155.813L188,88.288C187.981,72.282 174.814,59.117 158.808,59.1ZM174.735,155.811C174.725,164.544 167.541,171.727 158.808,171.736L91.271,171.736C82.538,171.727 75.354,164.544 75.343,155.811L75.343,141.9L109.729,141.9C125.735,141.884 138.901,128.72 138.921,112.714L138.921,93.414C138.921,89.776 135.927,86.782 132.289,86.782C128.651,86.782 125.657,89.776 125.657,93.414L125.657,112.714C125.646,121.447 118.462,128.629 109.729,128.638L42.193,128.638C33.46,128.629 26.276,121.447 26.265,112.714L26.265,45.187C26.275,36.454 33.46,29.271 42.193,29.262L109.729,29.262C118.462,29.271 125.647,36.454 125.657,45.187L125.657,59.1L91.271,59.1C75.265,59.117 62.098,72.282 62.079,88.288L62.079,107.337C62.079,110.975 65.073,113.969 68.711,113.969C72.349,113.969 75.343,110.975 75.343,107.337L75.343,88.288C75.354,79.555 82.538,72.373 91.271,72.364L158.808,72.364C167.541,72.373 174.725,79.556 174.735,88.289L174.735,155.814L174.735,155.811Z" style="fill:rgb(24,144,255);fill-rule:nonzero;"/>
</svg>
